# xmcd
#
# Track frame offsets:
#	150
#	18774
#	34785
#	52566
#	71286
#	88551
#	106506
#	126156
#	141600
#	161283
#
# Disc length: 2380 seconds
#
# Revision: 1
# Processed by: cddbd v1.5.1PL0 Copyright (c) Steve Scherf et al.
# Submitted via: audiograbber 1.83.01
#
DISCID=6e094a0a
DTITLE=Nilgun - Pervane
DYEAR=1900
DGENRE=pop
TTITLE0=Yillar Yollar
TTITLE1=Pis Pisla
TTITLE2=Soze Nasil Baslamali
TTITLE3=Yapraklarim
TTITLE4=Gecmesin Gunumuz Sevgilim Yasla
TTITLE5=Konusamiyorum
TTITLE6=Gel Gor
TTITLE7=Pervane
TTITLE8=Diken Dosekler
TTITLE9=Tasiyamadým
EXTD=
EXTT0=
EXTT1=
EXTT2=
EXTT3=
EXTT4=
EXTT5=
EXTT6=
EXTT7=
EXTT8=
EXTT9=
PLAYORDER=
